<svg width="32" height="32" viewBox="0 0 32 32" fill="none" xmlns="http://www.w3.org/2000/svg">
<path d="M9.14286 6.35714C7 6.35714 5.57143 7.07143 5.57143 8.85714C5.57143 10.6429 5.57143 11.7143 5.57143 13.1429C5.57143 14.5714 4.14286 16 2 16C4.14286 16 5.57143 17.7857 5.57143 19.2143C5.57143 20.6429 5.57143 21.3571 5.57143 23.1429C5.57143 24.9286 7 25.6429 9.14286 25.6429" stroke="black" stroke-width="1.5"/>
<path d="M22.8571 25.6429C25 25.6429 26.4286 24.9286 26.4286 23.1429C26.4286 21.3571 26.4286 20.2857 26.4286 18.8571C26.4286 17.4286 27.8571 16 30 16C27.8571 16 26.4286 14.2143 26.4286 12.7857C26.4286 11.3571 26.4286 10.6429 26.4286 8.85714C26.4286 7.07143 25 6.35714 22.8571 6.35714" stroke="black" stroke-width="1.5"/>
<line x1="11" y1="15.25" x2="21" y2="15.25" stroke="black" stroke-width="1.5"/>
<line x1="11" y1="20.25" x2="21" y2="20.25" stroke="black" stroke-width="1.5"/>
<line x1="11" y1="10.25" x2="21" y2="10.25" stroke="black" stroke-width="1.5"/>
</svg>
